<svg xmlns="http://www.w3.org/2000/svg" viewBox="0 0 1100 420" font-family="-apple-system,BlinkMacSystemFont,'Segoe UI',Roboto,sans-serif">
  <rect width="1100" height="420" fill="#faf5ff"/>
  <text x="550" y="38" text-anchor="middle" font-size="20" font-weight="700" fill="#6b21a8">엣지·AI·MLOps 통합</text>
  <text x="550" y="60" text-anchor="middle" font-size="13" fill="#7e22ce">엣지·중앙 통합 추론 · 모델 개발부터 운영·재학습까지 자동화</text>

  <!-- Left container -->
  <rect x="40" y="90" width="700" height="305" rx="10" fill="#ffffff" stroke="#a855f7"/>
  <text x="55" y="115" font-size="13" font-weight="700" fill="#6b21a8">엣지·중앙 통합 추론</text>

  <!-- Edge node -->
  <rect x="60" y="135" width="180" height="100" rx="10" fill="#ede9fe" stroke="#7c3aed" stroke-width="2"/>
  <text x="150" y="160" text-anchor="middle" font-size="13" font-weight="700" fill="#5b21b6">엣지</text>
  <text x="150" y="185" text-anchor="middle" font-size="11" fill="#5b21b6">빠른 1차 진단</text>
  <text x="150" y="205" text-anchor="middle" font-size="11" fill="#5b21b6">경량 모델</text>
  <text x="150" y="225" text-anchor="middle" font-size="11" fill="#5b21b6">현장 추론</text>

  <!-- arrow -->
  <line x1="245" y1="185" x2="295" y2="185" stroke="#7c3aed" stroke-width="2"/>
  <text x="270" y="178" text-anchor="middle" font-size="10" fill="#7c3aed">routing</text>

  <!-- Server -->
  <rect x="300" y="135" width="180" height="100" rx="10" fill="#7c3aed" stroke="#5b21b6" stroke-width="2"/>
  <text x="390" y="160" text-anchor="middle" font-size="13" font-weight="700" fill="#ffffff">중앙 (On-Prem · Cloud)</text>
  <text x="390" y="185" text-anchor="middle" font-size="11" fill="#e9d5ff">심층 분석 · 고정확도</text>
  <text x="390" y="205" text-anchor="middle" font-size="11" fill="#e9d5ff">중앙 집중 추론</text>
  <text x="390" y="225" text-anchor="middle" font-size="11" fill="#e9d5ff">복합 모델</text>

  <!-- Multimodal pills -->
  <text x="55" y="265" font-size="13" font-weight="700" fill="#6b21a8">멀티모달 입력</text>
  <g font-size="11" font-weight="600">
    <rect x="60" y="280" width="80" height="28" rx="14" fill="#a855f7"/><text x="100" y="298" text-anchor="middle" fill="#ffffff">Raw</text>
    <rect x="150" y="280" width="80" height="28" rx="14" fill="#a855f7"/><text x="190" y="298" text-anchor="middle" fill="#ffffff">Text</text>
    <rect x="240" y="280" width="100" height="28" rx="14" fill="#a855f7"/><text x="290" y="298" text-anchor="middle" fill="#ffffff">DataFrame</text>
    <rect x="350" y="280" width="80" height="28" rx="14" fill="#a855f7"/><text x="390" y="298" text-anchor="middle" fill="#ffffff">Image</text>
  </g>

  <!-- Standard nodes -->
  <text x="55" y="335" font-size="13" font-weight="700" fill="#6b21a8">제공 노드 유형</text>
  <g font-size="11" font-weight="600">
    <rect x="60" y="350" width="650" height="28" rx="14" fill="#0f766e"/>
    <text x="385" y="368" text-anchor="middle" fill="#ffffff">Data IO · Transform · Feature Extraction · Analytics · AI Service · Workflow · Trigger</text>
  </g>

  <!-- Right MLOps panel -->
  <rect x="760" y="90" width="300" height="305" rx="10" fill="#0f172a"/>
  <text x="910" y="115" text-anchor="middle" font-size="13" font-weight="700" fill="#ffffff">MLOps 자동화</text>

  <!-- 4-step pipeline -->
  <g font-weight="600">
    <circle cx="815" cy="160" r="20" fill="#a855f7"/><text x="815" y="166" text-anchor="middle" font-size="13" fill="#ffffff">1</text>
    <text x="815" y="200" text-anchor="middle" font-size="11" fill="#cbd5e1">학습</text>

    <line x1="838" y1="160" x2="887" y2="160" stroke="#cbd5e1" stroke-width="2"/>

    <circle cx="895" cy="160" r="20" fill="#a855f7"/><text x="895" y="166" text-anchor="middle" font-size="13" fill="#ffffff">2</text>
    <text x="895" y="200" text-anchor="middle" font-size="11" fill="#cbd5e1">등록</text>

    <line x1="918" y1="160" x2="967" y2="160" stroke="#cbd5e1" stroke-width="2"/>

    <circle cx="975" cy="160" r="20" fill="#a855f7"/><text x="975" y="166" text-anchor="middle" font-size="13" fill="#ffffff">3</text>
    <text x="975" y="200" text-anchor="middle" font-size="11" fill="#cbd5e1">배포</text>

    <line x1="998" y1="160" x2="1027" y2="160" stroke="#cbd5e1" stroke-width="2"/>

    <circle cx="1035" cy="160" r="20" fill="#a855f7"/><text x="1035" y="166" text-anchor="middle" font-size="13" fill="#ffffff">4</text>
    <text x="1035" y="200" text-anchor="middle" font-size="11" fill="#cbd5e1">모니터링</text>
  </g>

  <text x="775" y="245" font-size="12" font-weight="700" fill="#fde68a">자동화 영역</text>
  <text x="775" y="270" font-size="11" fill="#cbd5e1">• 모델 카탈로그 · 버전 관리 (Registry)</text>
  <text x="775" y="290" font-size="11" fill="#cbd5e1">• 모델 성능 자동 모니터링</text>
  <text x="775" y="310" font-size="11" fill="#cbd5e1">• 점진적 배포 및 롤백 지원</text>
  <text x="775" y="330" font-size="11" fill="#cbd5e1">• 학습 실험 추적 및 버전 관리</text>
  <text x="775" y="355" font-size="11" fill="#cbd5e1">• 다양한 프로그래밍 언어 기반 알고리즘 지원</text>
  <text x="775" y="375" font-size="11" fill="#cbd5e1">• 사용자 정의 알고리즘 통합</text>
</svg>
